<?xml version="1.0" encoding="UTF-8" standalone="no"?>
<!-- Created with Inkscape (http://www.inkscape.org/) -->

<svg
   width="40.033695mm"
   height="20.326843mm"
   viewBox="0 0 40.033694 20.326843"
   version="1.1"
   id="svg5"
   xml:space="preserve"
   xmlns="http://www.w3.org/2000/svg"
   xmlns:svg="http://www.w3.org/2000/svg"><defs
     id="defs2"><style
       id="style1301">
      .b778857a-237e-4266-9b26-f568acc6b29c {
        fill-rule: evenodd;
      }
    </style></defs><g
     id="layer1"
     transform="translate(-49.971056,-108.82958)"><g
       id="g1375"
       transform="matrix(0.26458333,0,0,0.26458333,62.458473,57.676778)"><circle
         id="path10519-80-1-5-2"
         style="fill:#000000;stroke:none;stroke-width:0.676946"
         cx="-329.31018"
         cy="-227.01506"
         r="0.024831958"
         transform="rotate(-1.0955204)" /><circle
         id="path10521-98-3-3-3"
         style="fill:#000000;stroke:none;stroke-width:0.676946"
         cx="-331.61203"
         cy="-216.16342"
         r="0.024831958"
         transform="rotate(-1.0955204)" /><circle
         id="path10523-6-2-5-0"
         style="fill:#000000;stroke:none;stroke-width:0.676946"
         cx="-336.87341"
         cy="-214.51923"
         r="0.024831958"
         transform="rotate(-1.0955204)" /><circle
         id="path11320-2-2-3-9"
         style="fill:#000000;stroke:none;stroke-width:0.676946"
         cx="-354.94461"
         cy="-195.3773"
         r="0.0031040176"
         transform="rotate(-1.0955204)" /><g
         id="g2567"><path
           id="path9106-5-6-25-8-9-82-4"
           style="fill:#000000;fill-opacity:1;stroke:#ffffff;stroke-width:1.51181;stroke-linecap:round;stroke-linejoin:round;stroke-dasharray:none;stroke-dashoffset:0;stroke-opacity:1;paint-order:fill markers stroke"
           d="m 59.062128,194.08905 -8.38867,14.4197 c -2.97482,0.52278 -5.11793,2.74723 -6.46964,5.87904 -2.12943,4.93395 -0.39448,7.70794 5.83787,10.35837 4.89112,2.08004 9.10911,3.01412 11.96074,-2.82315 1.5663,-3.20614 1.42922,-6.46888 -0.65867,-9.08692 0.97371,-4.77228 1.92815,-9.5032 2.0552,-12.42309 0.13045,-2.99252 -0.60702,-4.08682 -1.33162,-4.76276 -0.47549,-0.44354 -0.94631,-0.7069 -1.35377,-0.88986 l 9.2e-4,-9.1e-4 c -0.0583,-0.0262 -0.11525,-0.0486 -0.17099,-0.0713 -0.14792,-0.0618 -0.28715,-0.11365 -0.41168,-0.1615 -0.49831,-0.19093 -0.78481,-0.31382 -1.07037,-0.43702 z m -59.55355006,0.13775 c -0.64989004,0.0226 -1.17063004,0.17059 -1.58811004,0.32934 -0.0592,0.0226 -0.11741,0.045 -0.1726,0.0681 -0.14838,0.0608 -0.28031,0.12147 -0.40217,0.17574 -0.48732,0.2174 -0.77814,0.3333 -1.06718,0.4481 l 4.26558004,16.12653 c -1.73385004,2.47317 -1.67673004,5.56354 -0.418,8.73384 1.98309996,4.9946 5.16980996,5.72806 11.45090006,3.19525 3.08083,-1.24235 5.65829,-2.61383 6.6438,-4.96861 0.59128,-1.4129 0.60954,-3.1808 -0.18209,-5.48478 -1.15953,-3.37465 -3.56481,-5.5849 -6.89239,-5.95978 -2.6860201,-4.06304 -5.3547001,-8.08341 -7.3294001,-10.23805 -2.0238,-2.20825 -3.31802996,-2.46011 -4.30833996,-2.42572 z m 27.24498006,6.7008 a 67.987664,67.987664 0 0 0 -16.50184,2.47954 c 0.43031,0.64782 0.85741,1.28618 1.29044,1.94122 3.97538,0.44788 6.84978,3.09044 8.23508,7.12195 2.5221,7.34004 -1.8299,10.11333 -7.71891,12.48802 -7.5037801,3.02584 -11.31437006,2.14783 -13.6834401,-3.81908 -1.50382,-3.78746 -1.57106,-7.47816 0.50035,-10.4328 l -0.73151,-2.76296 a 67.987664,67.987664 0 0 0 -28.0398299,25.84843 c 0.40627,0.0825 0.80376,0.16065 1.21128,0.24384 3.12771,-2.49431 7.02681,-2.6581 10.85714,-0.78691 6.97355,3.40674 5.85599,8.44495 3.37098,14.28827 -3.16638,7.44561 -6.4811,9.51874 -12.37558,6.97473 -3.74154,-1.61481 -6.3977,-4.1761 -7.02223,-7.73 l -1.64352,-0.95636 a 67.987664,67.987664 0 0 0 -3.89034,23.5779 H 5.5744679 a 22.662555,22.662555 0 0 1 2.0172,-9.93879 22.662555,22.662555 0 0 1 30.0095201,-11.25613 22.662555,22.662555 0 0 1 13.26385,21.19492 h 45.32858 a 67.987664,67.987664 0 0 0 -2.58248,-19.03838 c -0.35967,0.23821 -0.70921,0.47382 -1.07034,0.71251 -0.44796,3.9754 -3.09042,6.84974 -7.12198,8.23508 -7.33992,2.52208 -10.11174,-1.82991 -12.48642,-7.7189 -3.02581,-7.50384 -2.14779,-11.31284 3.81907,-13.68187 3.78753,-1.5038 7.47659,-1.57262 10.43122,0.49876 l 1.64987,-0.43541 a 67.987664,67.987664 0 0 0 -25.45102,-27.41915 c -0.0812,0.39999 -0.15876,0.79109 -0.24067,1.19229 2.49436,3.12777 2.65809,7.02846 0.78694,10.85872 -3.40677,6.9736 -8.44664,5.85597 -14.28988,3.37098 -7.44558,-3.16639 -9.51714,-6.48116 -6.97314,-12.37558 1.61481,-3.74153 4.17608,-6.39935 7.72999,-7.02381 l 0.99911,-1.71636 A 67.987664,67.987664 0 0 0 26.753558,200.9276 Z M 12.686928,212.92 a 1.7776213,1.7776213 0 0 1 2.30855,0.99754 1.7776213,1.7776213 0 0 1 -0.019,1.3585 1.7776213,1.7776213 0 0 1 -0.97694,0.94845 1.7776213,1.7776213 0 0 1 -2.30696,-0.99594 1.7776213,1.7776213 0 0 1 0.99435,-2.30855 z m 35.3803,1.36012 a 1.7776213,1.7776213 0 0 1 1.3617,0.0206 1.7776213,1.7776213 0 0 1 0.92785,2.33705 1.7776213,1.7776213 0 0 1 -2.33704,0.92785 1.7776213,1.7776213 0 0 1 -0.92786,-2.33705 1.7776213,1.7776213 0 0 1 0.97535,-0.94843 z m -44.3104801,2.0742 a 1.7776213,1.7776213 0 0 1 2.31013,0.99595 1.7776213,1.7776213 0 0 1 -0.0206,1.3601 1.7776213,1.7776213 0 0 1 -0.97695,0.94844 1.7776213,1.7776213 0 0 1 -2.30696,-0.99752 1.7776213,1.7776213 0 0 1 0.99437,-2.30697 z m 53.0538301,1.81296 a 1.7776213,1.7776213 0 0 1 1.36011,0.0189 1.7776213,1.7776213 0 0 1 0.92785,2.33706 1.7776213,1.7776213 0 0 1 -2.33705,0.92784 1.7776213,1.7776213 0 0 1 -0.92785,-2.33705 1.7776213,1.7776213 0 0 1 0.97694,-0.94684 z m -97.9644,15.38556 c -2.22329,0.0637 -3.13423,0.70711 -3.72565,1.3411 -0.44359,0.47551 -0.70691,0.94635 -0.88987,1.35379 -0.0259,0.0583 -0.0505,0.11512 -0.0728,0.171 -0.0618,0.1479 -0.11369,0.28552 -0.16151,0.41009 -0.19093,0.49827 -0.31379,0.78478 -0.437,1.07036 l 14.41971,8.38866 c 0.52276,2.97481 2.74719,5.11794 5.87902,6.46963 4.93395,2.12947 7.70637,0.39452 10.35679,-5.83788 2.08003,-4.89109 3.01572,-9.10911 -2.82155,-11.96071 -3.20614,-1.56632 -6.47048,-1.42918 -9.08852,0.65868 -4.77228,-0.97372 -9.50159,-1.92815 -12.42149,-2.05522 -0.37407,-0.0163 -0.7195,-0.0186 -1.03711,-0.01 z m 143.486162,2.1613 -16.126592,4.26557 c -2.47314,-1.73388 -5.56511,-1.67673 -8.73543,-0.41801 -4.99457,1.98311 -5.72804,5.17138 -3.19521,11.45249 1.9877,4.92932 4.30941,8.57286 10.45336,6.46171 3.37464,-1.15953 5.58648,-3.56639 5.96138,-6.89397 4.06302,-2.68602 8.0818,-5.35471 10.236452,-7.32939 1.10415,-1.0119 1.72053,-1.84088 2.05521,-2.54132 0.33468,-0.70044 0.38923,-1.27188 0.37209,-1.76704 -0.0226,-0.64986 -0.17059,-1.16904 -0.32933,-1.58653 l 9.1e-4,-9.1e-4 c -0.0226,-0.0597 -0.0464,-0.11701 -0.0697,-0.17259 -0.0607,-0.14838 -0.12307,-0.28031 -0.17734,-0.40216 -0.21737,-0.48734 -0.33167,-0.77814 -0.44651,-1.06719 z m -123.697262,2.12962 a 1.7776213,1.7776213 0 0 1 1.36012,0.0206 1.7776213,1.7776213 0 0 1 0.92785,2.33706 1.7776213,1.7776213 0 0 1 -2.33706,0.92627 1.7776213,1.7776213 0 0 1 -0.92785,-2.33548 1.7776213,1.7776213 0 0 1 0.97694,-0.94844 z m 100.28403,4.35424 a 1.7776213,1.7776213 0 0 1 2.30697,0.99594 1.7776213,1.7776213 0 0 1 -0.0191,1.36011 1.7776213,1.7776213 0 0 1 -0.97534,0.94844 1.7776213,1.7776213 0 0 1 -2.31014,-0.99594 1.7776213,1.7776213 0 0 1 0.99752,-2.30855 z m -104.17119,4.38752 a 1.7776213,1.7776213 0 0 1 1.36012,0.0206 1.7776213,1.7776213 0 0 1 0.92785,2.33704 1.7776213,1.7776213 0 0 1 -2.33548,0.92787 1.7776213,1.7776213 0 0 1 -0.92785,-2.33705 1.7776213,1.7776213 0 0 1 0.97536,-0.94843 z m 107.60551,4.54266 a 1.7776213,1.7776213 0 0 1 2.30697,0.99594 1.7776213,1.7776213 0 0 1 -0.0191,1.36013 h -9.1e-4 a 1.7776213,1.7776213 0 0 1 -0.97536,0.94683 1.7776213,1.7776213 0 0 1 -2.30855,-0.99435 1.7776213,1.7776213 0 0 1 0.99753,-2.30855 z" /></g></g></g></svg>
